<?xml version="1.0" encoding="utf-8" ?>
<svg xmlns="http://www.w3.org/2000/svg" xmlns:xlink="http://www.w3.org/1999/xlink" width="1024" height="1024">
	<defs>
		<linearGradient id="gradient_0" gradientUnits="userSpaceOnUse" x1="315.00638" y1="551.3844" x2="324.99887" y2="78.373482">
			<stop offset="0" stop-color="#10004A"/>
			<stop offset="1" stop-color="#85A45B"/>
		</linearGradient>
	</defs>
	<path fill="url(#gradient_0)" transform="scale(1.6 1.6)" d="M208.202 210.049C213.309 194.118 219.563 185.832 227.586 172.445C244.433 144.333 223.607 111.73 197.993 97.5573C191.461 93.9432 184.306 91.4712 177.188 89.2966L160 84.0842C152.506 81.4721 153.722 78.0618 160.781 77.1872L169.898 76.4211C195.14 75.0779 220.717 76.1846 245.934 77.5755C249.252 77.4994 252.5 78.0231 255.781 78.393L268.328 79.625C298.962 83.3548 317.068 87.7475 343.967 102.981L354.596 109.665C355.814 110.517 357.431 111.39 358.452 112.447L358.58 112.644C381.402 128.156 400.028 152.258 413.902 175.696C432.395 204.883 449.037 249.74 455.131 284.683C477.888 274.262 515.787 263.429 540.848 258.513C548.873 256.939 556.682 253.192 559.485 263.888L559.621 264.391C560.088 268.234 542.235 287.987 539.132 292.509C512.307 331.601 513.707 390.276 469.734 413.549C464.962 416.075 462.995 414.121 462.738 418.67C460.901 451.188 452.94 476.269 424.994 495.39C420.667 498.351 415.861 500.702 411.873 504.128C405.821 509.328 401.046 516.233 395.59 522.062C371.057 548.27 343.168 555.896 308.622 550.651C278.528 546.082 253.47 526.64 235.266 503.045C229.525 495.605 226.971 493.739 220.578 487.234C203.983 470.345 195.062 448.185 192.146 424.913C191.865 422.672 191.659 422.683 189.524 421.532L175.672 413.056C159.723 401.738 146.675 383.788 138.915 366.012L132.314 348.577C124.374 328.242 112.28 310.73 97.3815 294.812C92.3568 289.443 75.5653 277.538 86.5011 270.312C90.4481 267.705 108.18 271.541 113.125 272.18C132.354 274.666 169.719 277.924 187.543 284.977L189.372 273.923C193.174 255.526 198.249 237.285 204.568 219.593C205.601 216.699 206.578 212.612 208.202 210.049ZM228.054 204.135C227.357 207.245 225.646 210.594 224.557 213.633L219.325 230.503C208.065 273.387 206.004 305.734 205.994 349.604C205.993 358.537 205.511 367.766 206.034 376.668L207.198 389.079C209.088 421.832 209.928 464.478 241.117 484.012C251.788 490.696 247.746 488.049 253.41 497.534C262.957 513.52 285.616 527.798 303.013 532.301C321.384 537.056 349.536 535.581 366.017 525.746C374.583 520.635 381.86 513.192 388.149 505.534C397.408 494.258 399.597 492.709 411.553 483.934C441.763 461.759 444.495 446.436 447.754 409.949C449.682 388.374 449.613 376.875 447.844 354.983L445.793 332.891L435.263 280.58C426.241 244.148 413.35 209.225 393.844 177.05C392.974 176.224 392.235 174.624 391.558 173.589L386.225 165.625C381.45 158.832 376.393 152.553 370.925 146.312C368.739 144.52 366.803 142.226 364.731 140.279C344.544 121.312 316.683 110.783 289.934 104.881L227.913 91.6474C226.374 91.3634 224.762 91.2623 223.251 90.8564L222.768 90.7221L215.261 89.5739L225.868 98.8207C239.982 112.003 250.892 127.618 251.402 147.518C251.853 165.127 245.34 172.388 236.898 186.564C233.498 192.272 230.755 198.076 228.054 204.135ZM110.923 285.998C129.045 305.489 142.012 325.396 151.666 350.04C158.157 366.61 164.822 382.942 179.243 394.568L179.048 389.11L179.166 347.456L182.202 318.565C182.947 313.148 183.423 307.459 184.68 302.139C172.236 298.244 159.725 295.027 146.876 292.712C134.95 290.564 122.598 289.219 110.923 285.998ZM532.333 278.801L487.332 292.772C478.086 295.98 468.25 299.318 459.563 303.819C463.386 316.399 465.147 330.072 467.433 343.012L472.593 371.639L473.864 384.157L482.929 364.688C488.779 350.482 493.515 336.201 501.262 322.812C508.077 311.034 516.247 299.994 524.62 289.285L532.773 279.219C532.409 278.801 532.599 278.871 532.333 278.801Z"/>
	<path fill="#393A45" transform="scale(1.6 1.6)" d="M282.824 377.262L284.299 377.221C287.492 377.262 290.369 381.048 292.711 383.012C299.876 389.021 312.516 395.189 317.885 400.57C316.452 404.521 313.987 407.875 311.331 411.079C310.126 412.295 309.068 412.866 307.493 413.54C298.588 410.481 278.132 389.716 278.716 380.312C279.884 378.791 281.066 378.005 282.824 377.262Z"/>
	<path fill="#393A45" transform="scale(1.6 1.6)" d="M362 375.339L362.116 375.337C372.625 374.956 362.511 389.736 360.255 393.094C355.1 400.769 349.223 408.722 341.286 413.695C340.016 412.857 338.816 412.044 337.695 411.004C327.133 400.535 326.81 400.357 337.326 393.6L354.176 381C356.753 378.795 358.862 376.745 362 375.339Z"/>
	<path fill="#393A45" transform="scale(1.6 1.6)" d="M403.738 309.138C405.429 308.985 407.459 308.903 409.081 309.424L409.531 309.579C421.31 313.412 420.467 323.543 415.298 332.747C403.866 353.105 379.593 361.78 357.327 359.499L351.562 358.44C339.009 354.935 336.476 349.58 349.436 343.143L361.406 337.181C372.337 331.476 382.174 324.844 391.739 317.073C395.727 313.833 398.689 310.584 403.738 309.138Z"/>
	<path fill="#393A45" transform="scale(1.6 1.6)" d="M235.001 313.587C240.184 313.165 242.075 314.464 246.028 317.706C254.309 324.5 264.897 329.893 274.72 334.074L293.038 340.954C298.236 342.756 312.671 345.337 308.701 353.855C307.042 357.415 299.85 359.552 296.408 360.805C292.621 361.771 288.894 362.864 285 363.368C262.002 366.349 233.093 354.237 226.286 330.53L225.781 328.724C224.111 322.152 228.555 315.214 235.001 313.587Z"/>
	<defs>
		<linearGradient id="gradient_1" gradientUnits="userSpaceOnUse" x1="325.07532" y1="418.41119" x2="333.16733" y2="505.72476">
			<stop offset="0" stop-color="#2B264A"/>
			<stop offset="1" stop-color="#301864"/>
		</linearGradient>
	</defs>
	<path fill="url(#gradient_1)" transform="scale(1.6 1.6)" d="M415.334 412.262L416.055 412.195C422.048 411.887 422.119 416.853 418.906 420.249C414.992 424.387 409.679 427.976 405.207 431.501L366.745 460.344C359.354 465.182 360.275 466.242 355.963 473.987C350.612 483.598 342.961 496.795 334.243 503.848L333.849 504.161C319.219 516.085 295.38 480.028 292.202 468.901C286.227 468.077 280.751 464.847 275.586 461.908L261.107 453.541C253.225 448.596 245.198 443.872 237.646 438.424C234.4 436.081 225.688 430.381 232.808 426.766C237.337 424.467 244.938 431.751 248.564 433.9C280.453 452.797 324.172 463.65 359.564 449.619C369.741 445.584 379.28 439.058 388.132 432.683L402.054 422.038C406.268 418.657 410.477 414.667 415.334 412.262Z"/>
</svg>
