<?xml version="1.0" encoding="utf-8" ?>
<svg xmlns="http://www.w3.org/2000/svg" xmlns:xlink="http://www.w3.org/1999/xlink" width="1024" height="1023">
	<path fill="#FEFE64" transform="scale(1.6 1.6)" d="M263.5 135.875C268.96 129.926 275.471 125.014 280.901 118.912C287.918 111.026 302.108 88.9345 310.468 84.7639L310.84 84.5826C326.872 76.6021 335.807 91.8135 343.806 101.875C349.448 108.972 355.144 115.818 361.327 122.451L360.859 122.891C359.469 121.531 351.509 113.312 351.094 111.875L350.469 112.966L348.984 111.717C347.908 111.716 347.268 111.087 346.25 111.094L345.078 110.859C344.649 110.59 344.586 110.467 344.062 110.469L341.953 111.092C341.953 112.723 344.702 113.456 344.141 114.766L342.656 115.466L342.266 115.078L339.375 117.028L338.828 116.641C338.046 117.562 336.758 118.388 335.466 118.281L335 118.591C333.671 118.594 332.826 119.103 331.561 119.373L331.222 119.46C330.183 119.666 329.381 119.324 328.438 119.841L325.153 119.844C324.294 121.132 325.337 119.464 324.686 120.859L323.909 120.938C322.353 120.412 319.664 120.772 317.966 120.781L317.5 121.091C313.434 121.102 316.648 120.365 315.159 118.125L315.078 116.405C315.058 118.018 316.038 120.816 313.591 120.469L312.793 120.622C312.286 120.419 311.938 120.441 311.406 120.466L310.938 120.153C309.563 120.153 296.902 119.615 296.562 119.841L294.688 119.841C293.743 119.841 293.34 119.914 292.5 119.528L290.938 119.841L289.688 119.375L288.672 119.766C287.924 119.872 288.078 119.906 287.656 120.466L286.875 120.466C286.004 120.466 285.229 119.768 284.531 120.466L283.278 119.844L278.906 123.591L278.203 122.891C275.877 125.238 265.803 135.447 263.5 135.875Z"/>
	<path fill="#1BF19B" transform="scale(1.6 1.6)" d="M103.802 491.181C103.651 486.452 106.756 480.178 108.592 475.986C130.136 426.797 165.081 385.342 216.269 365.348C228.79 384.727 243.176 398.995 258.667 415.796C279.077 437.933 299.789 459.876 320.741 481.501C324.318 477.09 328.493 473.102 332.439 469.018C349.823 451.025 366.605 432.457 383.739 414.227C395.462 401.755 407.772 390.228 417.518 376.062C419.947 372.531 422.134 368.752 424.962 365.527L439.784 372.39C466.063 385.96 489.208 405.843 506.328 429.953C514.588 441.586 526.969 462.463 531.437 476.483C539.293 493.088 538.531 511.383 519.287 519.869C514.212 522.107 508.978 523.009 503.603 524.179C456.82 534.364 403.146 540.285 355.126 542.922C351.753 543.107 348.412 543.642 345.026 543.747C279.458 545.778 212.852 538.917 148.438 527.191C139.735 525.606 130.954 524.376 122.711 520.996C111.672 516.471 102.132 503.54 103.802 491.181Z"/>
	<defs>
		<linearGradient id="gradient_0" gradientUnits="userSpaceOnUse" x1="318.10062" y1="110.96194" x2="329.99161" y2="424.16177">
			<stop offset="0" stop-color="#FFEE51"/>
			<stop offset="1" stop-color="#45DD91"/>
		</linearGradient>
	</defs>
	<path fill="url(#gradient_0)" transform="scale(1.6 1.6)" d="M263.5 135.875C265.803 135.447 275.877 125.238 278.203 122.891L278.906 123.591L283.278 119.844L284.531 120.466C285.229 119.768 286.004 120.466 286.875 120.466L287.656 120.466C288.078 119.906 287.924 119.872 288.672 119.766L289.688 119.375L290.938 119.841L292.5 119.528C293.34 119.914 293.743 119.841 294.688 119.841L296.562 119.841C296.902 119.615 309.563 120.153 310.938 120.153L311.406 120.466C311.938 120.441 312.286 120.419 312.793 120.622L313.591 120.469C316.038 120.816 315.058 118.018 315.078 116.405L315.159 118.125C316.648 120.365 313.434 121.102 317.5 121.091L317.966 120.781C319.664 120.772 322.353 120.412 323.909 120.938L324.686 120.859C325.337 119.464 324.294 121.132 325.153 119.844L328.438 119.841C329.381 119.324 330.183 119.666 331.222 119.46L331.561 119.373C332.826 119.103 333.671 118.594 335 118.591L335.466 118.281C336.758 118.388 338.046 117.562 338.828 116.641L339.375 117.028L342.266 115.078L342.656 115.466L344.141 114.766C344.702 113.456 341.953 112.723 341.953 111.092L344.062 110.469C344.586 110.467 344.649 110.59 345.078 110.859L346.25 111.094C347.268 111.087 347.908 111.716 348.984 111.717L350.469 112.966L351.094 111.875C351.509 113.312 359.469 121.531 360.859 122.891L361.327 122.451C381.372 140.487 400.225 157.392 413.94 181.264C418.955 189.993 422.84 199.199 427.345 208.174C435.868 202.496 443.466 195.34 451.906 189.459C474.631 173.624 499.191 162.176 525.108 152.659C528.87 151.277 538.878 146.951 542.342 147.793C547.23 148.982 550.288 154.337 548.431 159.135C547.024 162.771 543.71 165.649 541.252 168.611C525.993 187 513.362 208.909 509.72 232.763C508.91 238.067 508.805 243.51 507.466 248.714C501.324 272.568 478.337 293.327 456.249 301.991L454.575 302.615L438.672 307.864C431.217 366.622 373.561 431.986 309.345 423.688C258.533 417.123 211.945 363.485 203.501 314.051L202.751 313.481C198.954 312.943 194.728 311.038 191.25 309.427C168.445 298.859 141.399 274.087 133.699 249.271C131.992 243.769 131.55 238.011 130.373 232.397C126.06 211.813 115.408 191.817 102.642 175.192C99.5128 171.117 95.767 167.247 92.9241 162.992C89.0175 157.144 93.3491 148.724 99.6519 149.022C101.806 149.123 104.201 149.983 106.25 150.633C141.102 161.702 186.444 183.318 210.959 211.758C215.072 204.886 217.71 196.873 221.402 189.713C232.032 169.094 246.385 151.445 263.5 135.875ZM243.384 288.831C244.971 300.784 253.103 311.58 265 314.664C269.288 315.776 311.904 319.764 298.092 308.501C292.11 303.622 282.876 299.267 277.837 294.518C269.562 291.9 255.68 276.239 246.406 274.369L245.937 274.792C242.938 277.666 243.459 284.945 243.384 288.831ZM356.644 298.394C355.981 299.258 354.362 300.094 353.431 300.75C346.762 305.448 332.072 313.531 349.789 315.07C364.31 316.331 378.535 317.248 389.694 305.788C395.638 299.683 398.222 292.762 398.1 284.32C397.635 280.388 397.194 276.721 395.985 272.934C381.94 279.54 370.312 290.942 356.644 298.394Z"/>
</svg>
